<?xml version="1.0" encoding="utf-8"?>
<!-- Generator: Adobe Illustrator 25.4.1, SVG Export Plug-In . SVG Version: 6.00 Build 0)  -->
<svg version="1.1" id="RV_x5F_Primary_x5F_2-line_x5F_No-tagline_x5F_RGB_x5F_FulCol"
	 xmlns="http://www.w3.org/2000/svg" xmlns:xlink="http://www.w3.org/1999/xlink" x="0px" y="0px" viewBox="0 0 614.6 135.5"
	 style="enable-background:new 0 0 614.6 135.5;" xml:space="preserve">
<style type="text/css">
	.st0{fill:none;}
	.st1{fill:#11316E;}
	.st2{fill:#FFFFFF;}
	.st3{fill:#D70825;}
</style>
<g>
	<g>
		<g>
			<rect x="-41.9" y="-41.9" class="st0" width="698.3" height="219.3"/>
			<g>
			</g>
		</g>
	</g>
	<g>
		<g>
			<g>
			</g>
		</g>
	</g>
</g>
<g>
	<path class="st1" d="M197.1,120.1l-20.9-41.4l8-1.1c5.5,11.4,10.9,22.9,16.3,35.8h0.2c5.7-12.9,11.5-24.4,17.2-35.8l7,0.7
		l-22.5,41.8H197.1z M231.2,120.1V78.2h7.8v41.9H231.2z M294.5,85.3c-2.7-1.6-8.7-3.7-14.8-3.7c-14,0-22.2,7.4-22.2,17.2
		c0,10.6,9.9,17.7,22.2,17.7c6.1,0,11-1.4,14.3-3.1l3.1,3.5c-3.8,1.9-10.5,3.8-17.8,3.8c-20.2,0-30.5-10.2-30.5-21.8
		c0-10.5,11.1-21.5,31.4-21.5c8.1,0,13.7,2.1,17.4,4.2L294.5,85.3z M320.7,120.1V82.4h-18.1v-4.2h44.1v4.2h-18.2v37.7H320.7z
		 M347.4,98.5c0-11.7,12-20.9,28.3-20.9S404,86.7,404,98.5c0,12.5-10.8,22.4-28.3,22.4C358.2,120.8,347.4,111,347.4,98.5z
		 M395.3,98.5c0-7.8-5.7-16.8-19.6-16.8s-19.6,8.9-19.6,16.8c0,8.2,5,18.2,19.6,18.2S395.3,106.7,395.3,98.5z M414,78.2h16.2
		c9.2,0,16.4,3.5,16.4,10.8c0,6.2-4,9.6-9.5,12.2l14.1,17.8l-7.9,1.8l-13.1-18.1h-8.3v17.4H414V78.2z M421.8,98.6h4.4
		c10,0,11.9-5.5,11.9-9c0-5.1-4.4-7.1-9.6-7.1h-6.7V98.6z M458.3,120.1V78.2h7.8v41.9H458.3z M501.4,78.2l21.1,41.9h-9l-5.8-12.3
		h-21.6l-6.1,12.3h-7.6l23-41.9H501.4z M505.8,103.6c-2.8-5.8-5.6-11.6-8.4-19.2h-0.2c-2.9,7.5-5.9,13.3-9,19.2H505.8z M178.8,15.4
		H195c9.2,0,16.4,3.5,16.4,10.8c0,6.2-4,9.6-9.5,12.2L216,56.2L208,58L195,39.9h-8.3v17.4h-7.8V15.4z M186.6,35.7h4.4
		c10,0,11.9-5.5,11.9-9c0-5.1-4.4-7.1-9.6-7.1h-6.7V35.7z M248.7,15.4l21.1,41.9h-9L255,44.9h-21.6l-6.1,12.3h-7.6l23-41.9H248.7z
		 M253.1,40.8c-2.8-5.8-5.6-11.6-8.4-19.2h-0.2c-2.9,7.5-5.9,13.3-9,19.2H253.1z M294.3,15.4c22.8,0,30.7,9.6,30.7,19.7
		c0,13.9-12,22.2-32,22.2h-16.8V15.4H294.3z M284.1,53.1h8.7c15.9,0,23.6-5.9,23.6-18.1c0-9.3-7-15.4-21.9-15.4h-10.4V53.1z
		 M335.1,57.3V15.4h7.8v41.9H335.1z M353,35.6c0-11.7,12-20.9,28.3-20.9s28.3,9.2,28.3,20.9c0,12.5-10.8,22.4-28.3,22.4
		S353,48.1,353,35.6z M400.9,35.6c0-7.8-5.7-16.8-19.6-16.8s-19.6,8.9-19.6,16.8c0,8.2,5,18.2,19.6,18.2S400.9,43.8,400.9,35.6z
		 M419.6,15.4h7.8v37.7h23.5v4.2h-31.3V15.4z M451.9,35.6c0-11.7,12-20.9,28.3-20.9s28.3,9.2,28.3,20.9c0,12.5-10.8,22.4-28.3,22.4
		S451.9,48.1,451.9,35.6z M499.8,35.6c0-7.8-5.7-16.8-19.6-16.8s-19.6,8.9-19.6,16.8c0,8.2,5,18.2,19.6,18.2S499.8,43.8,499.8,35.6z
		 M565.5,38.1v17.1C560,56.6,553.1,58,546,58c-20.1,0-30.5-10.3-30.5-21.8c0-10.6,11.1-21.5,31.5-21.5c8.2,0,14.7,2,18.1,4.1
		l-3.2,3.5c-3.4-1.7-8.6-3.4-14.8-3.4c-14.7,0-22.9,7.4-22.9,17.2c0,10.6,9.8,17.7,22.1,17.7c4.8,0,8.3-0.4,11.5-1.5V38.1H565.5z
		 M587.7,57.3V39.1l-17-23.2l8.5-1.2l13.7,19.9l14.9-19.9l6.9,0.7l-19.1,23.6v18.1H587.7z"/>
	<g>
		<path class="st1" d="M135.5,67.8c0-31.1-21-57.3-49.5-65.3c-9.7,3.3-34.8,11.9-39.9,13.7c-3.7,1.3-4.1,3.1-4.1,4.4
			c0,1.3,0.4,3.1,4.1,4.4c4.8,1.7,27.3,9.4,38,13l-21.7,7.4l-16.9-5.8c-5.3-1.8-7.1-5.1-7.9-7.8c-0.9-3.5-1.4-6.2-1.5-10.1
			c0-0.3,0-1.2,0-1.2s0-0.9,0-1.2c0.1-3.9,0.6-6.6,1.5-10.1c0.2-0.9,0.6-1.9,1.2-2.8C15.9,17.3,0,40.7,0,67.8
			c0,31.1,21,57.3,49.6,65.3c9.7-3.3,34.8-11.9,39.9-13.7c3.7-1.3,4.1-3.1,4.1-4.4c0-1.3-0.4-3.1-4.1-4.4c-4.8-1.7-27.3-9.4-38-13
			l21.7-7.4L90,95.9c5.3,1.8,7.1,5.1,7.9,7.8c0.9,3.5,1.4,6.2,1.5,10.1c0,0.3,0,1.2,0,1.2s0,0.9,0,1.2c-0.1,3.9-0.6,6.6-1.5,10.1
			c-0.2,0.9-0.6,1.9-1.2,2.8C119.6,118.2,135.5,94.8,135.5,67.8z M97.6,70.7c-1,2.7-2.5,5.7-7.8,7.5c-0.5,0.2-37.4,12.8-43.7,15
			c-3.7,1.3-4.1,3.1-4.1,4.4c0,1.3,0.4,3.1,4.1,4.4c4.8,1.7,27.3,9.4,38,13l-21.7,7.4l-16.9-5.8c-5.3-1.8-7.1-5.1-7.9-7.8
			c-0.9-3.5-1.4-6.2-1.5-10.1c0-0.3,0-1.2,0-1.2s0-0.9,0-1.2c0.1-3.9,0.6-6.6,1.5-10.1c0.7-2.7,2.6-6,7.9-7.8l43.8-15
			c3.7-1.4,7-3.3,9.1-8.9C99.7,60.2,99.3,66,97.6,70.7z M99.4,39.1c-0.1,3.9-0.6,6.6-1.5,10.1c-0.7,2.7-2.6,6-7.9,7.8L46.2,72
			c-3.7,1.4-7,3.3-9.1,8.9c-1.3-5.7-0.9-11.5,0.8-16.1c1-2.7,2.5-5.7,7.8-7.5c0.5-0.2,37.4-12.8,43.7-15c3.7-1.3,4.1-3.1,4.1-4.4
			c0-1.3-0.4-3.1-4.1-4.4c-4.8-1.7-27.3-9.4-38-13l21.7-7.4L90,18.9c5.3,1.8,7.1,5.1,7.9,7.8c0.9,3.5,1.4,6.2,1.5,10.1
			c0,0.3,0,1.2,0,1.2S99.4,38.8,99.4,39.1z"/>
		<g>
			<path class="st2" d="M98.4,54.6c1.3,5.7,0.9,11.5-0.8,16.1c-1,2.7-2.5,5.7-7.8,7.5c-0.5,0.2-37.4,12.8-43.7,15
				c-3.7,1.3-4.1,3.1-4.1,4.4c0,1.3,0.4,3.1,4.1,4.4c4.8,1.7,27.3,9.4,38,13l-21.7,7.4l-16.9-5.8c-5.3-1.8-7.1-5.1-7.9-7.8
				c-0.9-3.5-1.4-6.2-1.5-10.1c0-0.3,0-1.2,0-1.2s0-0.9,0-1.2c0.1-3.9,0.6-6.6,1.5-10.1c0.7-2.7,2.6-6,7.9-7.8l43.8-15
				C93,62.1,96.3,60.2,98.4,54.6z M99.4,116.1c0-0.3,0-1.2,0-1.2s0-0.9,0-1.2c-0.1-3.9-0.6-6.6-1.5-10.1c-0.7-2.7-2.6-6-7.9-7.8
				l-16.9-5.8l-21.7,7.4c10.7,3.7,33.2,11.4,38,13c3.7,1.3,4.1,3.1,4.1,4.4c0,1.3-0.4,3.1-4.1,4.4c-5.1,1.8-30.2,10.3-39.9,13.7
				c5.8,1.6,11.9,2.5,18.2,2.5c10.3,0,20.1-2.3,28.9-6.5c0.6-0.9,0.9-1.9,1.2-2.8C98.8,122.7,99.3,120,99.4,116.1z M36.1,19.4
				c0,0.3,0,1.2,0,1.2s0,0.9,0,1.2c0.1,3.9,0.6,6.6,1.5,10.1c0.7,2.7,2.6,6,7.9,7.8l16.9,5.8L84.1,38c-10.7-3.7-33.2-11.4-38-13
				c-3.7-1.3-4.1-3.1-4.1-4.4c0-1.3,0.4-3.1,4.1-4.4C51.2,14.4,76.3,5.8,86,2.5C80.2,0.9,74.1,0,67.8,0C57.4,0,47.6,2.3,38.8,6.5
				c-0.6,1-0.9,1.9-1.2,2.8C36.7,12.8,36.2,15.5,36.1,19.4z M97.8,26.7c-0.7-2.7-2.6-6-7.9-7.8l-16.9-5.8l-21.7,7.4
				c10.7,3.7,33.2,11.4,38,13c3.7,1.3,4.1,3.1,4.1,4.4c0,1.3-0.4,3.1-4.1,4.4c-6.3,2.2-43.2,14.8-43.7,15c-5.3,1.8-6.8,4.8-7.8,7.5
				c-1.7,4.6-2.1,10.4-0.8,16.1c2.1-5.6,5.4-7.5,9.1-8.9L90,57c5.3-1.8,7.1-5.1,7.9-7.8c0.9-3.5,1.4-6.2,1.5-10.1c0-0.3,0-1.2,0-1.2
				s0-0.9,0-1.2C99.3,32.9,98.8,30.2,97.8,26.7z"/>
			<path class="st3" d="M97.3,60.2c-0.1,3.8-0.6,6.3-1.6,9.5c-0.9,2.7-2.7,5.2-6.8,6.6C88.4,76.4,51.7,89,45.4,91.1
				c-4.2,1.5-5.5,3.9-5.5,6.4c0,2.5,1.3,4.9,5.5,6.4c4.1,1.4,20.7,7.1,32.2,11c0,0-15.1,5.2-15.1,5.2c-8.5-2.9-15.7-5.4-15.9-5.4
				c-4.1-1.4-5.8-3.9-6.8-6.6c-1.1-3.2-1.5-5.7-1.6-9.5c0-0.3,0-1.1,0-1.1s0-0.8,0-1.1c0.1-3.8,0.5-6.3,1.6-9.5
				c0.9-2.7,2.7-5.2,6.8-6.6c0.5-0.2,38.1-13.1,44.5-15.2C93,64.5,96.2,62.8,97.3,60.2z M95.8,27.4c-0.9-2.7-2.7-5.2-6.8-6.6
				c-0.2-0.1-7.4-2.5-15.9-5.4c0,0-15.1,5.2-15.1,5.2c11.5,3.9,28.1,9.6,32.2,11c4.2,1.5,5.5,3.9,5.5,6.4c0,2.5-1.3,4.9-5.5,6.4
				c-6.3,2.2-43,14.7-43.6,14.9c-4.1,1.4-5.8,3.9-6.8,6.6c-1.1,3.2-1.5,5.7-1.6,9.5c1.2-2.6,4.3-4.3,6.4-5
				c6.3-2.2,43.9-15,44.5-15.2c4.1-1.4,5.8-3.9,6.8-6.6c1.1-3.2,1.5-5.7,1.6-9.5c0-0.3,0-1.1,0-1.1s0-0.8,0-1.1
				C97.3,33,96.9,30.5,95.8,27.4z M39.8,9.9c-1.1,3.2-1.5,5.7-1.6,9.5c0,0.3,0,1.1,0,1.1s0,0.8,0,1.1c0.1,3.8,0.5,6.3,1.6,9.5
				c0.9,2.7,2.7,5.2,6.8,6.6c0.2,0.1,7.4,2.5,15.9,5.4c0,0,15.1-5.2,15.1-5.2c-11.5-3.9-28.1-9.6-32.2-11c-4.2-1.5-5.5-3.9-5.5-6.4
				c0-2.5,1.3-4.9,5.5-6.4C50,12.5,71.1,5.3,82.1,1.5C77.5,0.5,72.7,0,67.8,0C60.2,0,52.8,1.3,46,3.6C42.3,5,40.7,7.4,39.8,9.9z
				 M95.8,125.6c1.1-3.2,1.5-5.7,1.6-9.5c0-0.3,0-1.1,0-1.1s0-0.8,0-1.1c-0.1-3.8-0.5-6.3-1.6-9.5c-0.9-2.7-2.7-5.2-6.8-6.6
				c-0.2-0.1-7.4-2.5-15.9-5.4c0,0-15.1,5.2-15.1,5.2c11.5,3.9,28.1,9.6,32.2,11c4.2,1.5,5.5,3.9,5.5,6.4c0,2.5-1.3,4.9-5.5,6.4
				c-4.7,1.6-25.7,8.8-36.8,12.6c4.6,1,9.5,1.5,14.4,1.5c7.6,0,14.9-1.3,21.8-3.6C93.2,130.5,94.9,128.1,95.8,125.6z"/>
		</g>
	</g>
</g>
</svg>
